<svg width="24" height="24" viewBox="0 0 24 24" fill="none" xmlns="http://www.w3.org/2000/svg">
<path d="M20.25 14.25V19.125C20.25 19.5375 19.9125 19.875 19.5 19.875H4.5C4.0875 19.875 3.75 19.5375 3.75 19.125V14.25H9.5625C9.5625 15.6 10.65 16.6875 12 16.6875C13.35 16.6875 14.4375 15.6 14.4375 14.25H20.25Z" stroke="#51526C" stroke-width="0.3"/>
<path d="M19.5 20.625H4.5C3.8625 20.625 3.375 20.1375 3.375 19.5V14.625C3.375 14.4 3.525 14.25 3.75 14.25H9.5625C9.7875 14.25 9.9375 14.4 9.9375 14.625C9.9375 15.75 10.875 16.6875 12 16.6875C13.125 16.6875 14.0625 15.75 14.0625 14.625C14.0625 14.4 14.2125 14.25 14.4375 14.25H20.25C20.475 14.25 20.625 14.4 20.625 14.625V19.5C20.625 20.1375 20.1375 20.625 19.5 20.625ZM4.125 15V19.5C4.125 19.725 4.275 19.875 4.5 19.875H19.5C19.725 19.875 19.875 19.725 19.875 19.5V15H14.775C14.5875 16.3875 13.425 17.4375 12 17.4375C10.575 17.4375 9.4125 16.3875 9.225 15H4.125Z" fill="#51526C" stroke="#51526C" stroke-width="0.3"/>
<path d="M20.2494 15C20.0994 15 19.9494 14.8875 19.8744 14.7375L18.7494 10.6125C18.7119 10.425 18.8244 10.2 19.0119 10.1625C19.1994 10.125 19.4244 10.2375 19.4619 10.425L20.5869 14.55C20.6244 14.7375 20.5119 14.9625 20.3244 15H20.2494ZM3.74937 15H3.63687C3.44937 14.9625 3.33687 14.7375 3.37437 14.55L4.49937 10.425C4.53687 10.2375 4.76187 10.125 4.94937 10.1625C5.13687 10.2 5.24937 10.425 5.21187 10.6125L4.08687 14.7375C4.04937 14.8875 3.89937 15 3.74937 15ZM17.9994 13.875C17.7744 13.875 17.6244 13.725 17.6244 13.5V9.375C17.6244 8.7375 17.1369 8.25 16.4994 8.25C16.2744 8.25 16.1244 8.1 16.1244 7.875C16.1244 7.65 16.2744 7.5 16.4994 7.5C17.5494 7.5 18.3744 8.325 18.3744 9.375V13.5C18.3744 13.725 18.2244 13.875 17.9994 13.875ZM5.99937 13.875C5.77437 13.875 5.62437 13.725 5.62437 13.5V9.375C5.62437 8.325 6.44937 7.5 7.49937 7.5C7.72437 7.5 7.87437 7.65 7.87437 7.875C7.87437 8.1 7.72437 8.25 7.49937 8.25C6.86187 8.25 6.37437 8.7375 6.37437 9.375V13.5C6.37437 13.725 6.22437 13.875 5.99937 13.875Z" fill="#51526C" stroke="#51526C" stroke-width="0.3"/>
<path d="M18 9.75C17.775 9.75 17.625 9.6 17.625 9.375C17.625 8.7375 17.1375 8.25 16.5 8.25H7.5C6.8625 8.25 6.375 8.7375 6.375 9.375C6.375 9.6 6.225 9.75 6 9.75C5.775 9.75 5.625 9.6 5.625 9.375C5.625 8.325 6.45 7.5 7.5 7.5H16.5C17.55 7.5 18.375 8.325 18.375 9.375C18.375 9.6 18.225 9.75 18 9.75ZM18 7.5C17.775 7.5 17.625 7.35 17.625 7.125C17.625 6.4875 17.1375 6 16.5 6H7.5C6.8625 6 6.375 6.4875 6.375 7.125C6.375 7.35 6.225 7.5 6 7.5C5.775 7.5 5.625 7.35 5.625 7.125C5.625 6.075 6.45 5.25 7.5 5.25H16.5C17.55 5.25 18.375 6.075 18.375 7.125C18.375 7.35 18.225 7.5 18 7.5ZM18 5.25C17.775 5.25 17.625 5.1 17.625 4.875C17.625 4.2375 17.1375 3.75 16.5 3.75H7.5C6.8625 3.75 6.375 4.2375 6.375 4.875C6.375 5.1 6.225 5.25 6 5.25C5.775 5.25 5.625 5.1 5.625 4.875C5.625 3.825 6.45 3 7.5 3H16.5C17.55 3 18.375 3.825 18.375 4.875C18.375 5.1 18.225 5.25 18 5.25Z" fill="#51526C" stroke="#51526C" stroke-width="0.3"/>
</svg>
