<svg width="56" height="56" viewBox="0 0 56 56" fill="none" xmlns="http://www.w3.org/2000/svg">
<path d="M24 18V21" stroke="#828282" stroke-width="1.5" stroke-miterlimit="10" stroke-linecap="round" stroke-linejoin="round"/>
<path d="M32 18V21" stroke="#828282" stroke-width="1.5" stroke-miterlimit="10" stroke-linecap="round" stroke-linejoin="round"/>
<path d="M37 24.5V29.63C36.11 28.92 34.98 28.5 33.75 28.5C32.52 28.5 31.37 28.93 30.47 29.66C29.26 30.61 28.5 32.1 28.5 33.75C28.5 34.73 28.78 35.67 29.26 36.45C29.63 37.06 30.11 37.59 30.68 38H24C20.5 38 19 36 19 33V24.5C19 21.5 20.5 19.5 24 19.5H32C35.5 19.5 37 21.5 37 24.5Z" stroke="#828282" stroke-width="1.5" stroke-miterlimit="10" stroke-linecap="round" stroke-linejoin="round"/>
<path d="M23 27H29" stroke="#828282" stroke-width="1.5" stroke-miterlimit="10" stroke-linecap="round" stroke-linejoin="round"/>
<path d="M23 32H25.62" stroke="#828282" stroke-width="1.5" stroke-miterlimit="10" stroke-linecap="round" stroke-linejoin="round"/>
<path d="M39 33.75C39 34.73 38.72 35.67 38.24 36.45C37.96 36.93 37.61 37.35 37.2 37.69C36.28 38.51 35.08 39 33.75 39C32.6 39 31.54 38.63 30.68 38C30.11 37.59 29.63 37.06 29.26 36.45C28.78 35.67 28.5 34.73 28.5 33.75C28.5 32.1 29.26 30.61 30.47 29.66C31.37 28.93 32.52 28.5 33.75 28.5C34.98 28.5 36.11 28.92 37 29.63C38.22 30.59 39 32.08 39 33.75Z" stroke="#828282" stroke-width="1.5" stroke-miterlimit="10" stroke-linecap="round" stroke-linejoin="round"/>
<path d="M32 33.875L33.0909 35L36 32" stroke="#828282" stroke-width="1.2" stroke-linecap="round" stroke-linejoin="round"/>
</svg>
