<svg width="56" height="56" viewBox="0 0 56 56" fill="none" xmlns="http://www.w3.org/2000/svg">
<path d="M38 26.9V20.1C38 18.6 37.36 18 35.77 18H31.73C30.14 18 29.5 18.6 29.5 20.1V26.9C29.5 28.4 30.14 29 31.73 29H35.77C37.36 29 38 28.4 38 26.9Z" stroke="#828282" stroke-width="1.5" stroke-linecap="round" stroke-linejoin="round"/>
<path d="M38 35.9V34.1C38 32.6 37.36 32 35.77 32H31.73C30.14 32 29.5 32.6 29.5 34.1V35.9C29.5 37.4 30.14 38 31.73 38H35.77C37.36 38 38 37.4 38 35.9Z" stroke="#828282" stroke-width="1.5" stroke-linecap="round" stroke-linejoin="round"/>
<path d="M26.5 29.1V35.9C26.5 37.4 25.86 38 24.27 38H20.23C18.64 38 18 37.4 18 35.9V29.1C18 27.6 18.64 27 20.23 27H24.27C25.86 27 26.5 27.6 26.5 29.1Z" stroke="#828282" stroke-width="1.5" stroke-linecap="round" stroke-linejoin="round"/>
<path d="M26.5 20.1V21.9C26.5 23.4 25.86 24 24.27 24H20.23C18.64 24 18 23.4 18 21.9V20.1C18 18.6 18.64 18 20.23 18H24.27C25.86 18 26.5 18.6 26.5 20.1Z" stroke="#828282" stroke-width="1.5" stroke-linecap="round" stroke-linejoin="round"/>
</svg>
