<svg width="56" height="56" viewBox="0 0 56 56" fill="none" xmlns="http://www.w3.org/2000/svg">
<g clip-path="url(#clip0_2028_5227)">
<path d="M36.4853 19.5147C34.2188 17.2482 31.2053 16 28 16C24.7947 16 21.7812 17.2482 19.5147 19.5147C17.2482 21.7812 16 24.7947 16 28C16 31.2053 17.2482 34.2188 19.5147 36.4853C21.7812 38.7518 24.7947 40 28 40C31.2053 40 34.2188 38.7518 36.4853 36.4853C38.7518 34.2188 40 31.2053 40 28C40 24.7947 38.7518 21.7812 36.4853 19.5147ZM28 39.1946C21.8273 39.1946 16.8054 34.1727 16.8054 28C16.8054 21.8273 21.8273 16.8054 28 16.8054C34.1727 16.8054 39.1946 21.8273 39.1946 28C39.1946 34.1727 34.1727 39.1946 28 39.1946Z" fill="#828282" stroke="#828282" stroke-width="0.4"/>
<path d="M34.3789 21.8173C34.3129 21.675 34.1703 21.584 34.0136 21.584H31.8659C31.748 21.584 31.636 21.6357 31.5595 21.7254L28.0001 25.9L24.4408 21.7254C24.3643 21.6357 24.2522 21.584 24.1343 21.584H21.9867C21.8299 21.584 21.6873 21.675 21.6214 21.8173C21.5554 21.9595 21.578 22.1271 21.6793 22.2468L25.8433 27.1679H24.5639C24.3415 27.1679 24.1612 27.3482 24.1612 27.5706V29.2887C24.1612 29.5111 24.3415 29.6914 24.5639 29.6914H26.7384V30.6041H24.5639C24.3415 30.6041 24.1612 30.7844 24.1612 31.0068V32.725C24.1612 32.9473 24.3415 33.1277 24.5639 33.1277H26.7384V35.7317C26.7384 35.9541 26.9187 36.1344 27.1411 36.1344H28.8592C29.0816 36.1344 29.2619 35.9541 29.2619 35.7317V33.1277H31.4364C31.6588 33.1277 31.8391 32.9474 31.8391 32.725V31.0068C31.8391 30.7845 31.6588 30.6041 31.4364 30.6041H29.2619V29.6914H31.4364C31.6588 29.6914 31.8391 29.5111 31.8391 29.2887V27.5706C31.8391 27.3482 31.6588 27.1679 31.4364 27.1679H30.157L34.321 22.2468C34.4222 22.1271 34.4448 21.9595 34.3789 21.8173ZM28.9813 27.3104C28.88 27.4301 28.8574 27.5977 28.9234 27.7399C28.9894 27.8822 29.1319 27.9732 29.2887 27.9732H31.0336V28.886H28.8592C28.6368 28.886 28.4565 29.0663 28.4565 29.2887V31.0068C28.4565 31.2292 28.6367 31.4095 28.8592 31.4095H31.0336V32.3222H28.8592C28.6368 32.3222 28.4565 32.5025 28.4565 32.725V35.329H27.5437V32.725C27.5437 32.5026 27.3634 32.3222 27.141 32.3222H24.9665V31.4095H27.141C27.3634 31.4095 27.5437 31.2292 27.5437 31.0068V29.2887C27.5437 29.0663 27.3634 28.886 27.141 28.886H24.9665V27.9732H26.7115C26.8683 27.9732 27.0108 27.8822 27.0768 27.7399C27.1428 27.5977 27.1201 27.4301 27.0189 27.3104L22.8548 22.3893H23.9484L27.6936 26.7819C27.7701 26.8716 27.8821 26.9233 28 26.9233C28.1179 26.9233 28.23 26.8716 28.3065 26.7819L32.0516 22.3893H33.1452L28.9813 27.3104Z" fill="#828282" stroke="#828282" stroke-width="0.4"/>
</g>
<defs>
<clipPath id="clip0_2028_5227">
<rect width="24" height="24" fill="white" transform="translate(16 16)"/>
</clipPath>
</defs>
</svg>
