<svg width="56" height="56" viewBox="0 0 56 56" fill="none" xmlns="http://www.w3.org/2000/svg">
<path d="M18.403 33.0758L18.4022 33.0846L18.4015 33.0934C18.3778 33.4262 18.4944 33.754 18.71 33.9936C18.9386 34.2475 19.2723 34.3842 19.6 34.3842H28C28.3277 34.3842 28.6614 34.2475 28.89 33.9936C29.1013 33.7587 29.2298 33.423 29.1842 33.0675C28.9592 30.7661 27.1108 28.9534 24.8169 28.7349L24.8164 28.7348C24.1429 28.6713 23.4451 28.6713 22.7716 28.7348L22.7711 28.7349C20.4704 28.954 18.6359 30.7745 18.403 33.0758ZM20.8 17.8002H35.2C37.5246 17.8002 39.4 19.6715 39.4 21.9642V34.0362C39.4 36.3289 37.5246 38.2002 35.2 38.2002H20.8C18.4754 38.2002 16.6 36.3289 16.6 34.0362V21.9642C16.6 19.6715 18.4754 17.8002 20.8 17.8002ZM27.172 24.9762C27.172 23.1208 25.6554 21.6042 23.8 21.6042C21.9446 21.6042 20.428 23.1208 20.428 24.9762C20.428 26.8316 21.9446 28.3482 23.8 28.3482C25.6554 28.3482 27.172 26.8316 27.172 24.9762ZM34 34.3002H36.4C37.2234 34.3002 37.9 33.6236 37.9 32.8002C37.9 31.9768 37.2234 31.3002 36.4 31.3002H34C33.1766 31.3002 32.5 31.9768 32.5 32.8002C32.5 33.6236 33.1766 34.3002 34 34.3002ZM31.6 29.5002H36.4C37.2234 29.5002 37.9 28.8236 37.9 28.0002C37.9 27.1768 37.2234 26.5002 36.4 26.5002H31.6C30.7766 26.5002 30.1 27.1768 30.1 28.0002C30.1 28.8236 30.7766 29.5002 31.6 29.5002ZM30.4 24.7002H36.4C37.2234 24.7002 37.9 24.0236 37.9 23.2002C37.9 22.3768 37.2234 21.7002 36.4 21.7002H30.4C29.5766 21.7002 28.9 22.3768 28.9 23.2002C28.9 24.0236 29.5766 24.7002 30.4 24.7002Z" stroke="#828282" stroke-width="1.2"/>
</svg>
