<svg width="20" height="21" viewBox="0 0 20 21" fill="none" xmlns="http://www.w3.org/2000/svg">
<path d="M10 13.8335V16.3335" stroke="black" stroke-width="1.5" stroke-linecap="round"/>
<path d="M12.9168 18.8333H7.0835L7.36683 17.42C7.40457 17.2312 7.50656 17.0612 7.65544 16.9391C7.80433 16.8169 7.99092 16.7501 8.1835 16.75H11.8168C12.0094 16.7501 12.196 16.8169 12.3449 16.9391C12.4938 17.0612 12.5958 17.2312 12.6335 17.42L12.9168 18.8333Z" stroke="black" stroke-width="1.5" stroke-linecap="round" stroke-linejoin="round"/>
<path d="M15.8334 4.6665L16.6242 4.92984C17.4492 5.20484 17.8617 5.34234 18.0976 5.66984C18.3334 5.99734 18.3334 6.43317 18.3334 7.3015V7.36234C18.3334 8.079 18.3334 8.43817 18.1609 8.7315C17.9884 9.02484 17.6742 9.199 17.0476 9.54817L14.5834 10.9165M4.16675 4.6665L3.37591 4.92984C2.55091 5.20484 2.13841 5.34234 1.90258 5.66984C1.66675 5.99734 1.66675 6.43317 1.66675 7.3015V7.36234C1.66675 8.079 1.66675 8.43817 1.83925 8.7315C2.01175 9.02484 2.32591 9.199 2.95258 9.54817L5.41675 10.9165M9.28841 5.519C9.60508 4.94984 9.76341 4.6665 10.0001 4.6665C10.2367 4.6665 10.3951 4.94984 10.7117 5.519L10.7934 5.66567C10.8834 5.82734 10.9284 5.90734 10.9984 5.96067C11.0692 6.014 11.1567 6.034 11.3317 6.07317L11.4901 6.10984C12.1051 6.249 12.4126 6.31817 12.4859 6.55317C12.5592 6.78817 12.3492 7.034 11.9301 7.524L11.8217 7.65067C11.7026 7.78984 11.6426 7.859 11.6159 7.94567C11.5892 8.03234 11.5984 8.12484 11.6159 8.31067L11.6326 8.47984C11.6959 9.134 11.7276 9.4615 11.5367 9.6065C11.3451 9.7515 11.0567 9.619 10.4809 9.354L10.3326 9.28567C10.1684 9.21067 10.0867 9.17317 10.0001 9.17317C9.91341 9.17317 9.83175 9.21067 9.66758 9.28567L9.51925 9.354C8.94341 9.61984 8.65508 9.7515 8.46341 9.6065C8.27175 9.4615 8.30425 9.134 8.36758 8.47984L8.38425 8.31067C8.40175 8.12484 8.41091 8.03234 8.38425 7.94567C8.35758 7.859 8.29758 7.78984 8.17841 7.65067L8.07008 7.524C7.65091 7.034 7.44091 6.789 7.51425 6.55317C7.58758 6.31817 7.89508 6.249 8.51008 6.10984L8.66841 6.07317C8.84341 6.034 8.93091 6.01484 9.00175 5.96067C9.07175 5.90734 9.11675 5.82734 9.20675 5.66567L9.28841 5.519Z" stroke="black" stroke-width="1.5"/>
<path d="M15.0001 18.8334H5.00009M14.1668 2.5467C14.7843 2.6642 15.1509 2.7942 15.4668 3.1842C15.8643 3.67253 15.8434 4.20003 15.8009 5.25503C15.6509 9.0492 14.8009 13.8334 10.0009 13.8334C5.20092 13.8334 4.35009 9.05003 4.19842 5.25503C4.15675 4.20003 4.13592 3.6717 4.53175 3.1842C4.92842 2.69586 5.40259 2.61586 6.35175 2.45586C7.55772 2.25831 8.77805 2.16159 10.0001 2.1667C10.599 2.16781 11.1545 2.1867 11.6668 2.22336" stroke="black" stroke-width="1.5" stroke-linecap="round"/>
</svg>
