<svg width="24" height="25" viewBox="0 0 24 25" fill="none" xmlns="http://www.w3.org/2000/svg">
<path d="M12.334 8.93744H10.623M10.5468 10.1094V7.76562C10.5468 7.25 10.9687 6.82812 11.4843 6.82812C12 6.82812 12.4218 7.25 12.4218 7.76562V10.1094M7.26556 6.82817V10.1094H8.90618M3.75 10.1094V6.82812H4.6875C5.20312 6.82812 5.62499 7.25 5.62499 7.76562C5.62499 8.28124 5.20312 8.70312 4.6875 8.70312H3.92578M15.9375 6.82817V8C15.9375 8.51557 15.5156 8.93749 15 8.93749C14.4843 8.93749 14.0625 8.51562 14.0625 8V6.82817M15 8.99618V10.1094" stroke="#3B82F6" stroke-width="0.937501" stroke-miterlimit="22.9256" stroke-linecap="round" stroke-linejoin="round"/>
<path d="M7.73421 12.2187H4.21874C2.15624 12.2187 0.46875 10.5312 0.46875 8.46874C0.46875 6.40624 2.15624 4.71875 4.21874 4.71875H15.4687C17.5312 4.71875 19.2187 6.40624 19.2187 8.46874C19.2187 10.5312 17.5312 12.2187 15.4687 12.2187M15.4687 12.2187H11.9529M15.4687 12.2187L18.288 19.3163L19.6209 17.9834L21.9187 20.2812L23.5313 18.6687L21.2334 16.3709L22.5663 15.038L15.4687 12.2187Z" stroke="#3B82F6" stroke-width="0.937501" stroke-miterlimit="22.9256" stroke-linecap="round" stroke-linejoin="round"/>
<path d="M9.84375 12.2188H9.84408" stroke="#3B82F6" stroke-width="0.937487" stroke-miterlimit="2.6131" stroke-linecap="round" stroke-linejoin="round"/>
</svg>
