<svg width="21" height="21" viewBox="0 0 21 21" fill="none" xmlns="http://www.w3.org/2000/svg">
<path d="M5.35286 9.66667C6.9612 9.66667 8.26953 8.35833 8.26953 6.75C8.26953 5.14167 6.9612 3.83333 5.35286 3.83333C3.74453 3.83333 2.4362 5.14167 2.4362 6.75C2.4362 8.35833 3.74453 9.66667 5.35286 9.66667ZM5.35286 5.5C6.04203 5.5 6.60286 6.06083 6.60286 6.75C6.60286 7.43917 6.04203 8 5.35286 8C4.6637 8 4.10286 7.43917 4.10286 6.75C4.10286 6.06083 4.6637 5.5 5.35286 5.5ZM13.6862 6.33333C15.2945 6.33333 16.6029 5.025 16.6029 3.41667C16.6029 1.80833 15.2945 0.5 13.6862 0.5C12.0779 0.5 10.7695 1.80833 10.7695 3.41667C10.7695 5.025 12.0779 6.33333 13.6862 6.33333ZM13.6862 2.16667C14.3754 2.16667 14.9362 2.7275 14.9362 3.41667C14.9362 4.10583 14.3754 4.66667 13.6862 4.66667C12.997 4.66667 12.4362 4.10583 12.4362 3.41667C12.4362 2.7275 12.997 2.16667 13.6862 2.16667ZM14.9362 8.83333C11.7204 8.83333 9.10286 11.4508 9.10286 14.6667C9.10286 17.8825 11.7204 20.5 14.9362 20.5C18.152 20.5 20.7695 17.8825 20.7695 14.6667C20.7695 11.4508 18.152 8.83333 14.9362 8.83333ZM14.9362 18.8333C12.6387 18.8333 10.7695 16.9642 10.7695 14.6667C10.7695 12.3692 12.6387 10.5 14.9362 10.5C17.2337 10.5 19.1029 12.3692 19.1029 14.6667C19.1029 16.9642 17.2337 18.8333 14.9362 18.8333ZM18.262 13.9317L15.382 16.7642C15.1254 17.0217 14.7762 17.1658 14.4045 17.1658C14.0329 17.1658 13.6845 17.0208 13.422 16.7583L11.8845 15.2683L13.0454 14.0717L14.4037 15.3883L17.0937 12.7425L18.262 13.9317ZM7.4362 10.5C7.8337 10.5 8.20453 10.6017 8.5387 10.7675C8.24953 11.24 8.01036 11.7458 7.8312 12.28C7.71203 12.2142 7.58203 12.1667 7.43703 12.1667H3.26953C2.80953 12.1667 2.4362 12.54 2.4362 13V15.5H0.769531V13C0.769531 11.6217 1.8912 10.5 3.26953 10.5H7.4362ZM9.10286 9.9575V9.66667C9.10286 8.28833 10.2245 7.16667 11.6029 7.16667H14.9362C12.5787 7.16667 10.4779 8.25667 9.10286 9.9575Z" fill="black"/>
</svg>
