<svg width="21" height="21" viewBox="0 0 21 21" fill="none" xmlns="http://www.w3.org/2000/svg">
<path d="M0.310185 7.97827C1.7028 2.34878 7.39504 -1.08305 13.0224 0.310102C18.6514 1.70272 22.0832 7.39336 20.6906 13.0218C19.298 18.6502 13.6068 22.0831 7.97782 20.69C2.35046 19.2979 -1.0835 13.6062 0.310185 7.97827Z" fill="#EF3827"/>
<path d="M11.1652 10.1626L10.6744 10.7555L9.95973 10.47L10.3686 11.1203L9.87784 11.7116L10.6244 11.5217L11.0354 12.172L11.0838 11.4037L11.8304 11.2139L11.1157 10.9294L11.1657 10.1621L11.1652 10.1626ZM14.011 8.54879H13.2411L13.0055 7.81659L12.7668 8.54879H11.9984L12.6195 8.9997L12.3807 9.73137L13.0034 9.27993L13.6245 9.73243L13.3873 9.00023L14.01 8.54932L14.011 8.54879ZM12.7588 5.73218L12.8758 6.49203L13.2283 5.80663L13.9866 5.92946L13.4437 5.38496L13.7941 4.70008L13.1076 5.04837L12.5663 4.50387L12.6833 5.26266L11.9984 5.60988L12.7583 5.73165L12.7588 5.73218ZM11.1705 2.21049L10.6797 2.80338L9.96664 2.51943L10.3761 3.16815L9.88529 3.75997L10.6303 3.56961L11.0413 4.21992L11.0913 3.45157L11.8362 3.26227L11.1232 2.97832L11.1716 2.20996L11.1705 2.21049ZM5.80315 5.59234L5.08158 3.37127L4.35842 5.59234H2.02197L3.9123 6.96687L3.19073 9.18953L5.08105 7.81499L6.96978 9.18953L6.24821 6.96687L8.13854 5.59234H5.80209H5.80315Z" fill="#FFD203"/>
</svg>
