<svg width="20" height="21" viewBox="0 0 20 21" fill="none" xmlns="http://www.w3.org/2000/svg">
<g clip-path="url(#clip0_34_367)">
<path d="M17.5 3.83333H15V3C15 1.62167 13.8783 0.5 12.5 0.5H2.5C1.12167 0.5 0 1.62167 0 3V15.3783C0 16.04 0.3625 16.645 0.945 16.9567C1.21 17.0992 1.50083 17.1692 1.79083 17.1692C2.1375 17.1692 2.48333 17.0683 2.7825 16.8692L5 15.3908V18H13.9142L17.2175 20.2025C17.5175 20.4025 17.8625 20.5033 18.2092 20.5033C18.4992 20.5033 18.7892 20.4325 19.055 20.29C19.6383 19.9783 20 19.3733 20 18.7117V6.33333C20 4.955 18.8783 3.83333 17.5 3.83333ZM1.85833 15.4825C1.8425 15.4925 1.79583 15.5225 1.73167 15.4883C1.66583 15.4533 1.66583 15.3975 1.66583 15.3792V3C1.66583 2.54 2.04 2.16667 2.49917 2.16667H12.4992C12.9583 2.16667 13.3325 2.54 13.3325 3V13H5.58083L1.85833 15.4825ZM18.3333 18.7125C18.3333 18.73 18.3333 18.7867 18.2675 18.8217C18.2017 18.8558 18.1567 18.8258 18.1417 18.8158L14.4192 16.3333H6.66667V14.6667H15V5.5H17.5C17.9592 5.5 18.3333 5.87333 18.3333 6.33333V18.7125Z" fill="black"/>
</g>
<defs>
<clipPath id="clip0_34_367">
<rect width="20" height="20" fill="white" transform="translate(0 0.5)"/>
</clipPath>
</defs>
</svg>
