<svg width="16" height="17" viewBox="0 0 16 17" fill="none" xmlns="http://www.w3.org/2000/svg">
<path d="M13.4885 9.625H10.5823C10.197 9.6246 9.82733 9.777 9.55429 10.0488C9.28125 10.3205 9.12714 10.6895 9.12575 11.0748V13.981C9.12555 14.1723 9.16309 14.3618 9.23622 14.5386C9.30934 14.7154 9.41662 14.8761 9.55191 15.0113C9.6872 15.1466 9.84784 15.2539 10.0246 15.327C10.2014 15.4002 10.3909 15.4377 10.5823 15.4375H13.4885C13.8736 15.4359 14.2424 15.2817 14.514 15.0087C14.7856 14.7357 14.9379 14.3661 14.9375 13.981V11.0748C14.9377 10.8844 14.9004 10.6959 14.8276 10.52C14.7549 10.3441 14.6481 10.1843 14.5135 10.0497C14.3789 9.91512 14.2191 9.8084 14.0432 9.73565C13.8674 9.6629 13.6788 9.62555 13.4885 9.62575M5.41775 9.625H2.5115C2.12645 9.62718 1.7579 9.78167 1.4864 10.0547C1.21489 10.3278 1.06249 10.6972 1.0625 11.0823V13.9885C1.0623 14.1788 1.09965 14.3674 1.1724 14.5432C1.24515 14.7191 1.35187 14.8789 1.48646 15.0135C1.62105 15.1481 1.78087 15.2549 1.95676 15.3276C2.13265 15.4004 2.32116 15.4377 2.5115 15.4375H5.41775C5.80286 15.4379 6.17243 15.2856 6.44544 15.014C6.71846 14.7424 6.87266 14.3736 6.87425 13.9885V11.0823C6.87445 10.8909 6.83691 10.7014 6.76378 10.5246C6.69066 10.3478 6.58338 10.1872 6.44809 10.0519C6.3128 9.91662 6.15216 9.80934 5.97536 9.73622C5.79856 9.66309 5.60908 9.62555 5.41775 9.62575M5.41775 1.5625H2.5115C2.32116 1.5623 2.13265 1.59965 1.95676 1.6724C1.78087 1.74515 1.62105 1.85187 1.48646 1.98646C1.35187 2.12105 1.24515 2.28087 1.1724 2.45676C1.09965 2.63265 1.0623 2.82116 1.0625 3.0115V5.91775C1.0621 6.30286 1.2144 6.67243 1.48601 6.94544C1.75762 7.21846 2.12639 7.37266 2.5115 7.37425H5.41775C5.60908 7.37445 5.79856 7.33691 5.97536 7.26378C6.15216 7.19066 6.3128 7.08338 6.44809 6.94809C6.58338 6.8128 6.69066 6.65216 6.76378 6.47536C6.83691 6.29856 6.87445 6.10908 6.87425 5.91775V3.0115C6.87266 2.62639 6.71846 2.25762 6.44544 1.98601C6.17243 1.7144 5.80286 1.5621 5.41775 1.5625ZM13.4885 1.5625H10.5823C10.1971 1.5621 9.82757 1.7144 9.55456 1.98601C9.28154 2.25762 9.12734 2.62639 9.12575 3.0115V5.91775C9.12595 6.30398 9.27947 6.67433 9.55257 6.94743C9.82567 7.22054 10.196 7.37405 10.5823 7.37425H13.4885C13.8736 7.37266 14.2424 7.21846 14.514 6.94544C14.7856 6.67243 14.9379 6.30286 14.9375 5.91775V3.0115C14.9377 2.82116 14.9004 2.63265 14.8276 2.45676C14.7549 2.28087 14.6481 2.12105 14.5135 1.98646C14.3789 1.85187 14.2191 1.74515 14.0432 1.6724C13.8674 1.59965 13.6788 1.5623 13.4885 1.5625Z" stroke="black" stroke-width="1.5" stroke-linecap="round" stroke-linejoin="round"/>
</svg>
