<svg width="49" height="48" viewBox="0 0 49 48" fill="none" xmlns="http://www.w3.org/2000/svg">
<circle cx="24.332" cy="24" r="23.25" fill="url(#paint0_linear_2113_3957)" fill-opacity="0.34" stroke="#D7E2E3" stroke-width="1.5"/>
<path d="M18.8498 20.2188H13.7633C13.7169 20.2187 13.671 20.2279 13.6282 20.2456C13.5853 20.2634 13.5464 20.2894 13.5136 20.3222C13.4808 20.355 13.4548 20.3939 13.437 20.4368C13.4193 20.4796 13.4102 20.5255 13.4102 20.5719V32.8723C13.4102 32.966 13.4474 33.0558 13.5136 33.122C13.5798 33.1883 13.6696 33.2255 13.7633 33.2255H34.2332C34.2795 33.2255 34.3255 33.2164 34.3683 33.1986C34.4112 33.1809 34.4501 33.1549 34.4829 33.1221C34.5157 33.0893 34.5417 33.0503 34.5594 33.0075C34.5772 32.9646 34.5863 32.9187 34.5863 32.8723V20.5719C34.5863 20.4782 34.5491 20.3884 34.4829 20.3222C34.4166 20.256 34.3268 20.2188 34.2332 20.2188H20.2625C20.1688 20.2188 20.079 20.256 20.0128 20.3222C19.9465 20.3884 19.9093 20.4782 19.9093 20.5719C19.9093 20.6656 19.9465 20.7554 20.0128 20.8216C20.079 20.8879 20.1688 20.9251 20.2625 20.9251H33.88V32.5191H14.1165V20.9251H18.8498C18.8961 20.9251 18.9421 20.9159 18.9849 20.8982C19.0278 20.8804 19.0667 20.8544 19.0995 20.8216C19.1323 20.7888 19.1583 20.7499 19.1761 20.7071C19.1938 20.6642 19.2029 20.6183 19.2029 20.5719C19.2029 20.5255 19.1938 20.4796 19.1761 20.4368C19.1583 20.3939 19.1323 20.355 19.0995 20.3222C19.0667 20.2894 19.0278 20.2634 18.9849 20.2456C18.9421 20.2279 18.8961 20.2187 18.8498 20.2188Z" fill="#191919"/>
<path d="M34.705 18.8104H33.1502L25.445 15.0046C25.4625 14.9172 25.4718 14.827 25.4718 14.7345C25.4718 13.9784 24.8567 13.3633 24.1006 13.3633C23.3445 13.3633 22.7294 13.9784 22.7294 14.7345C22.7294 14.827 22.7387 14.9173 22.7563 15.0046L15.051 18.8104H13.295C12.5809 18.8104 12 19.3913 12 20.1054V33.3393C12 34.0534 12.5809 34.6343 13.295 34.6343H28.3343C28.3807 34.6343 28.4266 34.6252 28.4694 34.6074C28.5123 34.5897 28.5512 34.5637 28.584 34.5309C28.6168 34.4981 28.6428 34.4592 28.6606 34.4163C28.6783 34.3735 28.6875 34.3275 28.6875 34.2812C28.6875 34.2348 28.6783 34.1889 28.6606 34.146C28.6428 34.1032 28.6168 34.0642 28.584 34.0314C28.5512 33.9986 28.5123 33.9726 28.4694 33.9549C28.4266 33.9371 28.3807 33.928 28.3343 33.928H13.295C12.9704 33.928 12.7064 33.664 12.7064 33.3394V20.1054C12.7064 19.7808 12.9704 19.5168 13.295 19.5168H26.7825C26.8762 19.5168 26.966 19.4795 27.0322 19.4133C27.0984 19.3471 27.1357 19.2573 27.1357 19.1636C27.1357 19.0699 27.0984 18.9801 27.0322 18.9139C26.966 18.8476 26.8762 18.8104 26.7825 18.8104H16.6461L23.07 15.6375C23.3215 15.9242 23.6902 16.1058 24.1006 16.1058C24.5111 16.1058 24.8798 15.9242 25.1313 15.6375L31.5552 18.8104H28.1952C28.1016 18.8104 28.0117 18.8476 27.9455 18.9139C27.8793 18.9801 27.8421 19.0699 27.8421 19.1636C27.8421 19.2573 27.8793 19.3471 27.9455 19.4133C28.0117 19.4795 28.1016 19.5168 28.1952 19.5168H34.705C35.0296 19.5168 35.2936 19.7808 35.2936 20.1054V33.3393C35.2936 33.6639 35.0296 33.928 34.705 33.928H29.747C29.6533 33.928 29.5635 33.9652 29.4972 34.0314C29.431 34.0976 29.3938 34.1874 29.3938 34.2811C29.3938 34.3748 29.431 34.4646 29.4972 34.5308C29.5635 34.5971 29.6533 34.6343 29.747 34.6343H34.705C35.4191 34.6343 36 34.0533 36 33.3393V20.1054C36 19.3913 35.4191 18.8104 34.705 18.8104ZM24.1006 15.3994C23.734 15.3994 23.4358 15.1012 23.4358 14.7346C23.4358 14.368 23.734 14.0697 24.1006 14.0697C24.4672 14.0697 24.7655 14.368 24.7655 14.7346C24.7655 15.1012 24.4672 15.3994 24.1006 15.3994Z" fill="#191919"/>
<path d="M18.0144 24.9292C18.108 24.9292 18.1979 24.892 18.2641 24.8258C18.3303 24.7595 18.3675 24.6697 18.3675 24.576C18.3675 24.4824 18.3303 24.3926 18.2641 24.3263C18.1979 24.2601 18.108 24.2229 18.0144 24.2229H16.4977C16.4513 24.2229 16.4054 24.232 16.3625 24.2498C16.3197 24.2675 16.2807 24.2935 16.248 24.3263C16.2152 24.3591 16.1891 24.398 16.1714 24.4409C16.1537 24.4837 16.1445 24.5297 16.1445 24.576V28.3522L16.1446 28.3532L16.1445 28.3543C16.1445 28.448 16.1817 28.5378 16.248 28.604C16.3142 28.6703 16.404 28.7075 16.4977 28.7075H18.0144C18.108 28.7075 18.1979 28.6703 18.2641 28.604C18.3303 28.5378 18.3675 28.448 18.3675 28.3543C18.3675 28.2606 18.3303 28.1708 18.2641 28.1046C18.1979 28.0384 18.108 28.0012 18.0144 28.0012H16.8508V26.8184H18.0144C18.108 26.8184 18.1979 26.7812 18.2641 26.7149C18.3303 26.6487 18.3675 26.5589 18.3675 26.4652C18.3675 26.3715 18.3303 26.2817 18.2641 26.2155C18.1979 26.1493 18.108 26.112 18.0144 26.112H16.8508V24.9293H18.0144V24.9292ZM22.9733 28.7074H24.49C24.5837 28.7074 24.6735 28.6702 24.7397 28.604C24.806 28.5378 24.8432 28.4479 24.8432 28.3543C24.8432 28.2606 24.806 28.1708 24.7397 28.1045C24.6735 28.0383 24.5837 28.0011 24.49 28.0011H23.3264V26.8183H24.49C24.5364 26.8183 24.5823 26.8092 24.6252 26.7914C24.668 26.7737 24.7069 26.7477 24.7397 26.7149C24.7725 26.6821 24.7985 26.6431 24.8163 26.6003C24.834 26.5575 24.8432 26.5115 24.8432 26.4652C24.8432 26.4188 24.834 26.3729 24.8163 26.33C24.7985 26.2872 24.7725 26.2482 24.7397 26.2154C24.7069 26.1826 24.668 26.1566 24.6252 26.1389C24.5823 26.1211 24.5364 26.112 24.49 26.112H23.3264V24.9292H24.49C24.5837 24.9292 24.6735 24.892 24.7397 24.8258C24.806 24.7596 24.8432 24.6698 24.8432 24.5761C24.8432 24.4824 24.806 24.3926 24.7397 24.3264C24.6735 24.2601 24.5837 24.2229 24.49 24.2229H22.9733C22.8796 24.2229 22.7898 24.2601 22.7236 24.3264C22.6573 24.3926 22.6201 24.4824 22.6201 24.5761V28.3522L22.6202 28.3533L22.6201 28.3544C22.6201 28.4007 22.6293 28.4466 22.647 28.4895C22.6648 28.5323 22.6908 28.5712 22.7236 28.604C22.7564 28.6368 22.7953 28.6628 22.8381 28.6806C22.881 28.6983 22.9269 28.7074 22.9733 28.7074ZM18.8162 24.6708L19.8062 28.2235C19.8868 28.513 20.1429 28.7074 20.4434 28.7074C20.7438 28.7074 20.9999 28.5129 21.0805 28.2235L22.0705 24.6708C22.0957 24.5806 22.0839 24.4841 22.0379 24.4025C21.9919 24.3209 21.9153 24.2609 21.8251 24.2358C21.7349 24.2107 21.6383 24.2224 21.5568 24.2684C21.4752 24.3144 21.4152 24.391 21.3901 24.4812L20.4433 27.8787L19.4966 24.4812C19.4841 24.4365 19.463 24.3948 19.4344 24.3583C19.4058 24.3217 19.3703 24.2912 19.3299 24.2684C19.2895 24.2457 19.245 24.2311 19.199 24.2255C19.1529 24.2199 19.1063 24.2234 19.0616 24.2359C19.0169 24.2483 18.9751 24.2694 18.9386 24.298C18.9021 24.3266 18.8716 24.3621 18.8488 24.4025C18.826 24.4429 18.8114 24.4874 18.8058 24.5334C18.8002 24.5795 18.8038 24.6262 18.8162 24.6708ZM26.2871 28.3521V25.9251L27.7498 28.5273C27.8324 28.6742 28.0131 28.743 28.1726 28.6882C28.3136 28.6398 28.4109 28.5033 28.4109 28.3542V24.576C28.4109 24.4823 28.3737 24.3925 28.3074 24.3263C28.2412 24.26 28.1514 24.2228 28.0577 24.2228C27.9641 24.2228 27.8742 24.26 27.808 24.3263C27.7418 24.3925 27.7046 24.4823 27.7046 24.576V27.0052L26.2418 24.4029C26.2035 24.3348 26.1438 24.2813 26.0719 24.2508C26 24.2202 25.92 24.2144 25.8444 24.2342C25.7689 24.254 25.702 24.2982 25.6543 24.3601C25.6066 24.422 25.5807 24.4979 25.5807 24.576V28.3521C25.5807 28.4458 25.618 28.5356 25.6842 28.6018C25.7504 28.6681 25.8402 28.7053 25.9339 28.7053C25.9803 28.7053 26.0262 28.6961 26.0691 28.6784C26.1119 28.6606 26.1508 28.6346 26.1836 28.6018C26.2164 28.569 26.2424 28.5301 26.2602 28.4873C26.2779 28.4444 26.2871 28.3985 26.2871 28.3521ZM30.4824 28.7074C30.5288 28.7074 30.5747 28.6983 30.6175 28.6806C30.6604 28.6628 30.6993 28.6368 30.7321 28.604C30.7649 28.5712 30.7909 28.5323 30.8087 28.4894C30.8264 28.4466 30.8355 28.4006 30.8355 28.3543V24.9314H31.7016C31.7953 24.9314 31.8851 24.8941 31.9513 24.8279C32.0175 24.7617 32.0547 24.6719 32.0548 24.5782C32.0547 24.4845 32.0175 24.3947 31.9513 24.3285C31.8851 24.2623 31.7953 24.225 31.7016 24.225H29.2632C29.1695 24.225 29.0797 24.2623 29.0134 24.3285C28.9472 24.3947 28.91 24.4845 28.91 24.5782C28.91 24.6719 28.9472 24.7617 29.0134 24.8279C29.0797 24.8941 29.1695 24.9314 29.2632 24.9314H30.1292V28.3543C30.1292 28.4479 30.1664 28.5378 30.2327 28.604C30.2989 28.6702 30.3887 28.7074 30.4824 28.7074Z" fill="#191919"/>
<defs>
<linearGradient id="paint0_linear_2113_3957" x1="0.332031" y1="0" x2="50.1081" y2="1.91843" gradientUnits="userSpaceOnUse">
<stop stop-color="#DBE0E2" stop-opacity="0.64"/>
<stop offset="1" stop-color="#DBE0E2" stop-opacity="0.69"/>
</linearGradient>
</defs>
</svg>
