<svg width="18" height="19" viewBox="0 0 18 19" fill="none" xmlns="http://www.w3.org/2000/svg">
<path d="M9 2.9375C9.14918 2.9375 9.29226 2.99676 9.39775 3.10225C9.50324 3.20774 9.5625 3.35082 9.5625 3.5C9.5625 3.64918 9.50324 3.79226 9.39775 3.89775C9.29226 4.00324 9.14918 4.0625 9 4.0625C7.55789 4.0625 6.17484 4.63538 5.15511 5.65511C4.13538 6.67484 3.5625 8.05789 3.5625 9.5C3.5625 10.9421 4.13538 12.3252 5.15511 13.3449C6.17484 14.3646 7.55789 14.9375 9 14.9375C9.14918 14.9375 9.29226 14.9968 9.39775 15.1023C9.50324 15.2077 9.5625 15.3508 9.5625 15.5C9.5625 15.6492 9.50324 15.7923 9.39775 15.8977C9.29226 16.0032 9.14918 16.0625 9 16.0625C7.25952 16.0625 5.59032 15.3711 4.35961 14.1404C3.1289 12.9097 2.4375 11.2405 2.4375 9.5C2.4375 7.75952 3.1289 6.09032 4.35961 4.85961C5.59032 3.6289 7.25952 2.9375 9 2.9375Z" fill="black"/>
<path d="M12.3525 7.64763C12.2531 7.541 12.199 7.39996 12.2016 7.25424C12.2042 7.10851 12.2632 6.96947 12.3663 6.86641C12.4693 6.76335 12.6084 6.70432 12.7541 6.70175C12.8998 6.69918 13.0409 6.75327 13.1475 6.85263L15.3975 9.10263C15.5028 9.2081 15.562 9.35107 15.562 9.50013C15.562 9.64919 15.5028 9.79216 15.3975 9.89763L13.1475 12.1476C13.096 12.2029 13.0339 12.2472 12.9649 12.278C12.8959 12.3087 12.8214 12.3252 12.7459 12.3266C12.6704 12.3279 12.5953 12.314 12.5253 12.2857C12.4553 12.2574 12.3916 12.2153 12.3382 12.1619C12.2848 12.1085 12.2427 12.0449 12.2144 11.9748C12.1861 11.9048 12.1722 11.8298 12.1736 11.7542C12.1749 11.6787 12.1914 11.6042 12.2222 11.5352C12.2529 11.4662 12.2972 11.4041 12.3525 11.3526L13.6425 10.0626H7.5C7.35082 10.0626 7.20774 10.0034 7.10225 9.89788C6.99676 9.79239 6.9375 9.64931 6.9375 9.50013C6.9375 9.35095 6.99676 9.20787 7.10225 9.10238C7.20774 8.99689 7.35082 8.93763 7.5 8.93763H13.6425L12.3525 7.64763Z" fill="black"/>
</svg>
