<svg width="20" height="21" viewBox="0 0 20 21" fill="none" xmlns="http://www.w3.org/2000/svg">
<g clip-path="url(#clip0_34_404)">
<path d="M10.0001 16.9289V19.786M13.5715 15.5003V18.3574M6.42868 15.5003V18.3574M11.5201 5.34171C11.4387 5.10902 11.2869 4.90748 11.0856 4.76512C10.8844 4.62277 10.6438 4.54667 10.3972 4.54742H9.47582C9.2145 4.54835 8.96268 4.64552 8.76846 4.82036C8.57425 4.99521 8.45126 5.23548 8.42298 5.49527C8.3947 5.75506 8.46313 6.01616 8.61518 6.22869C8.76723 6.44123 8.99224 6.59029 9.24725 6.64742L10.6515 6.95599C10.9375 7.01976 11.1899 7.18664 11.3606 7.42476C11.5313 7.66287 11.6082 7.95553 11.5768 8.2468C11.5453 8.53808 11.4076 8.80755 11.19 9.00373C10.9725 9.19991 10.6902 9.30904 10.3972 9.31028H9.60296C9.35646 9.31103 9.11585 9.23493 8.9146 9.09258C8.71335 8.95022 8.56148 8.74868 8.4801 8.51599M10.0001 4.54742V3.35742M10.0001 10.5003V9.31028M3.92868 7.28599C3.83396 7.28599 3.74312 7.24837 3.67614 7.18139C3.60916 7.11441 3.57153 7.02357 3.57153 6.92885C3.57153 6.83413 3.60916 6.74329 3.67614 6.67631C3.74312 6.60933 3.83396 6.57171 3.92868 6.57171C4.0234 6.57171 4.11424 6.60933 4.18121 6.67631C4.24819 6.74329 4.28582 6.83413 4.28582 6.92885C4.28582 7.02357 4.24819 7.11441 4.18121 7.18139C4.11424 7.24837 4.0234 7.28599 3.92868 7.28599ZM16.0715 7.28599C15.9768 7.28599 15.886 7.24837 15.819 7.18139C15.752 7.11441 15.7144 7.02357 15.7144 6.92885C15.7144 6.83413 15.752 6.74329 15.819 6.67631C15.886 6.60933 15.9768 6.57171 16.0715 6.57171C16.1663 6.57171 16.2571 6.60933 16.3241 6.67631C16.391 6.74329 16.4287 6.83413 16.4287 6.92885C16.4287 7.02357 16.391 7.11441 16.3241 7.18139C16.2571 7.24837 16.1663 7.28599 16.0715 7.28599Z" stroke="black" stroke-linecap="round" stroke-linejoin="round"/>
<path d="M17.8572 1.21436H2.14293C1.76405 1.21436 1.40068 1.36487 1.13277 1.63277C0.864865 1.90068 0.714355 2.26405 0.714355 2.64293V11.2144C0.714355 11.5932 0.864865 11.9566 1.13277 12.2245C1.40068 12.4924 1.76405 12.6429 2.14293 12.6429H17.8572C18.2361 12.6429 18.5995 12.4924 18.8674 12.2245C19.1353 11.9566 19.2858 11.5932 19.2858 11.2144V2.64293C19.2858 2.26405 19.1353 1.90068 18.8674 1.63277C18.5995 1.36487 18.2361 1.21436 17.8572 1.21436Z" stroke="black" stroke-linecap="round" stroke-linejoin="round"/>
</g>
<defs>
<clipPath id="clip0_34_404">
<rect width="20" height="20" fill="white" transform="translate(0 0.5)"/>
</clipPath>
</defs>
</svg>
