<svg width="21" height="21" viewBox="0 0 21 21" fill="none" xmlns="http://www.w3.org/2000/svg">
<path d="M18.2695 3.72607H18.1279V5.0164H18.2695C18.4905 5.0164 18.7025 5.08437 18.8588 5.20536C19.0151 5.32635 19.1029 5.49045 19.1029 5.66156V18.5648C19.1029 18.7359 19.0151 18.9 18.8588 19.021C18.7025 19.142 18.4905 19.2099 18.2695 19.2099H3.26953C3.04852 19.2099 2.83656 19.142 2.68028 19.021C2.524 18.9 2.4362 18.7359 2.4362 18.5648V5.66156C2.4362 5.49045 2.524 5.32635 2.68028 5.20536C2.83656 5.08437 3.04852 5.0164 3.26953 5.0164H3.4112V3.72607H3.26953C2.60649 3.72607 1.97061 3.92999 1.50176 4.29296C1.03292 4.65594 0.769531 5.14824 0.769531 5.66156V18.5648C0.769531 19.0781 1.03292 19.5704 1.50176 19.9334C1.97061 20.2964 2.60649 20.5003 3.26953 20.5003H18.2695C18.9326 20.5003 19.5685 20.2964 20.0373 19.9334C20.5061 19.5704 20.7695 19.0781 20.7695 18.5648V5.66156C20.7695 5.14824 20.5061 4.65594 20.0373 4.29296C19.5685 3.92999 18.9326 3.72607 18.2695 3.72607Z" fill="black"/>
<path d="M16.6029 2.43548H14.1029V0.5H7.43628V2.43548H4.93628V6.30645H16.6029V2.43548ZM14.9363 5.01613H6.60295V3.72581H9.10295V1.79032H12.4363V3.72581H14.9363V5.01613Z" fill="black"/>
<path d="M5.76953 8.88721H15.7695V10.1775H5.76953V8.88721ZM5.76953 12.113H15.7695V13.4033H5.76953V12.113ZM5.76953 15.3388H15.7695V16.6291H5.76953V15.3388Z" fill="black"/>
</svg>
