<svg width="40" height="40" viewBox="0 0 40 40" fill="none" xmlns="http://www.w3.org/2000/svg">
<circle cx="20" cy="20" r="20" fill="#F5F5FA"/>
<path d="M17 18.5002C17 18.3013 17.079 18.1105 17.2197 17.9699C17.3604 17.8292 17.5511 17.7502 17.75 17.7502H22.25C22.4489 17.7502 22.6397 17.8292 22.7804 17.9699C22.921 18.1105 23 18.3013 23 18.5002C23 18.6991 22.921 18.8899 22.7804 19.0305C22.6397 19.1712 22.4489 19.2502 22.25 19.2502H17.75C17.5511 19.2502 17.3604 19.1712 17.2197 19.0305C17.079 18.8899 17 18.6991 17 18.5002ZM17.75 20.7502C17.5511 20.7502 17.3604 20.8292 17.2197 20.9699C17.079 21.1105 17 21.3013 17 21.5002C17 21.6991 17.079 21.8899 17.2197 22.0305C17.3604 22.1712 17.5511 22.2502 17.75 22.2502H20.75C20.9489 22.2502 21.1397 22.1712 21.2804 22.0305C21.421 21.8899 21.5 21.6991 21.5 21.5002C21.5 21.3013 21.421 21.1105 21.2804 20.9699C21.1397 20.8292 20.9489 20.7502 20.75 20.7502H17.75ZM11 20.0002C11.0004 18.0188 11.6547 16.0929 12.8613 14.5212C14.0679 12.9496 15.7595 11.82 17.6736 11.3078C19.5877 10.7957 21.6173 10.9294 23.4476 11.6885C25.2779 12.4475 26.8065 13.7893 27.7964 15.5057C28.7863 17.2222 29.1821 19.2173 28.9224 21.1816C28.6627 23.146 27.762 24.9697 26.36 26.3699C24.958 27.7701 23.1332 28.6685 21.1685 28.9258C19.2039 29.183 17.2092 28.7848 15.494 27.7927L11.987 28.9627C11.8575 29.006 11.7185 29.013 11.5853 28.9831C11.452 28.9532 11.3294 28.8875 11.2307 28.793C11.1321 28.6985 11.0611 28.5789 11.0255 28.447C10.9898 28.3151 10.9909 28.176 11.0285 28.0447L12.0965 24.3082C11.3766 22.9865 10.9996 21.5053 11 20.0002ZM20 12.5002C18.6758 12.5001 17.3752 12.8507 16.2303 13.5162C15.0855 14.1817 14.1372 15.1385 13.482 16.2892C12.8268 17.44 12.4879 18.7437 12.4999 20.0679C12.5118 21.3921 12.8741 22.6895 13.55 23.8282C13.602 23.9162 13.6355 24.0139 13.6484 24.1152C13.6613 24.2166 13.6533 24.3195 13.625 24.4177L12.8615 27.0877L15.3485 26.2597C15.4542 26.2245 15.5663 26.2132 15.6768 26.2267C15.7874 26.2402 15.8935 26.2781 15.9875 26.3377C16.9704 26.9598 18.0846 27.3447 19.2418 27.462C20.3991 27.5793 21.5678 27.4258 22.6555 27.0137C23.7433 26.6016 24.7203 25.9421 25.5092 25.0874C26.2982 24.2327 26.8776 23.2062 27.2015 22.089C27.5255 20.9718 27.5852 19.7946 27.3758 18.6504C27.1665 17.5062 26.6938 16.4263 25.9953 15.4962C25.2967 14.5661 24.3914 13.8113 23.3509 13.2913C22.3104 12.7713 21.1632 12.5005 20 12.5002Z" fill="black"/>
</svg>
