<svg width="25" height="25" viewBox="0 0 25 25" fill="none" xmlns="http://www.w3.org/2000/svg">
<g clip-path="url(#clip0_2547_22602)">
<path d="M19.6763 16.352V13.8536L18.6219 14.2638L18.6188 14.2569L18.5937 14.2112C18.1897 13.5822 17.5362 13.1445 16.8005 13.0111L14.2634 12.5495V12.3492C15.2122 11.7983 15.907 10.8583 16.1235 9.74716C16.8264 9.60178 17.3565 8.97814 17.3565 8.23271V4.41391C17.357 3.89125 17.1887 3.38239 16.8766 2.96316C16.5645 2.54394 16.1252 2.2368 15.6243 2.08752L15.431 1.89421C14.5317 0.994893 13.3362 0.5 12.0646 0.5C9.43971 0.5 7.30394 2.63539 7.30394 5.26064V8.23271C7.30394 8.97814 7.83401 9.60178 8.53692 9.74716C8.75382 10.8583 9.44822 11.7986 10.397 12.3492V12.5495L7.8603 13.0107C7.12531 13.1441 6.47228 13.581 6.06786 14.2097L6.04467 14.2661L4.98412 13.8536V16.352C4.34463 16.352 3.82422 16.8725 3.82422 17.512V19.0585C3.82422 19.698 4.34463 20.2184 4.98412 20.2184V21.6428L12.3302 24.5L19.6763 21.6428V20.2184C20.3158 20.2184 20.8362 19.698 20.8362 19.0585V17.512C20.8362 16.8725 20.3158 16.352 19.6763 16.352ZM14.9879 13.4674L16.6621 13.7716C17.155 13.8613 17.5915 14.1459 17.8827 14.5511L14.142 16.0056L14.9879 13.4674ZM11.2032 12.7038C11.56 12.8128 11.9381 12.8723 12.3302 12.8723C12.7222 12.8723 13.1004 12.8128 13.4572 12.7038L12.3302 13.5489L11.2032 12.7038ZM11.7417 14.074L10.9526 14.8627L10.4407 13.3274L10.687 13.2829L11.7417 14.074ZM13.9734 13.2833L14.2197 13.3278L13.7078 14.8631L12.9187 14.0744L13.9734 13.2833ZM16.1965 8.89849V7.56692C16.4266 7.70108 16.5832 7.94776 16.5832 8.23271C16.5832 8.51766 16.4266 8.76433 16.1965 8.89849ZM8.46384 8.89849C8.23379 8.76433 8.07721 8.51766 8.07721 8.23271C8.07721 7.94776 8.23379 7.70108 8.46384 7.56692V8.89849ZM8.46384 6.29953V6.74107C8.32826 6.77651 8.19817 6.83036 8.07721 6.90113V5.26064C8.07721 3.06223 9.86578 1.27327 12.0646 1.27327C13.1294 1.27327 14.1311 1.68813 14.8843 2.4413L15.2253 2.78269L15.3293 2.80821C15.6877 2.89727 16.0059 3.1038 16.2332 3.39484C16.4604 3.68587 16.5837 4.04465 16.5832 4.41391V6.90113C16.4623 6.8302 16.3322 6.77634 16.1965 6.74107V6.29953H14.9705C13.9227 6.29953 12.9214 5.79922 12.2931 4.96138L11.9857 4.55078L11.2175 5.31941C10.5849 5.95156 9.74438 6.29953 8.85048 6.29953H8.46384ZM9.23711 9.00598V7.05502C10.1917 6.96648 11.0775 6.55239 11.7642 5.86611L11.9146 5.71571C12.6898 6.57133 13.8064 7.0728 14.9705 7.0728H15.4233V9.00598C15.4233 10.7114 14.0356 12.0991 12.3302 12.0991C10.6247 12.0991 9.23711 10.7114 9.23711 9.00598ZM7.99833 13.7716L9.67246 13.4674L10.5184 16.0056L6.77695 14.5507C7.06809 14.1451 7.50537 13.8613 7.99833 13.7716ZM4.59749 19.0585V17.512C4.59749 17.2985 4.77109 17.1253 4.98412 17.1253C5.62362 17.1253 6.14403 17.6457 6.14403 18.2852C6.14403 18.9247 5.62362 19.4451 4.98412 19.4451C4.77109 19.4451 4.59749 19.2719 4.59749 19.0585ZM11.9436 23.5195L5.7574 21.1142V20.0545C6.43903 19.7552 6.9173 19.0759 6.9173 18.2852C6.9173 17.4946 6.43903 16.8152 5.7574 16.516V14.9841L11.9436 17.3898V23.5195ZM10.7956 16.1139L12.3302 14.5789L13.8648 16.1135L12.3302 16.7105L10.7956 16.1139ZM18.903 21.1138L12.7168 23.5191V17.3898L18.903 14.9841V16.516C18.2214 16.8152 17.7431 17.4946 17.7431 18.2852C17.7431 19.0759 18.2214 19.7552 18.903 20.0545V21.1138ZM20.0629 19.0585C20.0629 19.2719 19.8893 19.4451 19.6763 19.4451C19.0368 19.4451 18.5164 18.9247 18.5164 18.2852C18.5164 17.6457 19.0368 17.1253 19.6763 17.1253C19.8893 17.1253 20.0629 17.2985 20.0629 17.512V19.0585Z" fill="#3B82F6"/>
</g>
<defs>
<clipPath id="clip0_2547_22602">
<rect width="24" height="24" fill="white" transform="translate(0.332031 0.5)"/>
</clipPath>
</defs>
</svg>
