<svg width="33" height="33" viewBox="0 0 33 33" fill="none" xmlns="http://www.w3.org/2000/svg">
<path d="M19.9999 14.1669V16.8331M22.6668 14.1669H9.33301M21.333 8.83312H10.6668V4.83312C10.6668 4.47955 10.8072 4.14047 11.0572 3.89046C11.3072 3.64045 11.6463 3.5 11.9999 3.5H19.9999C20.3535 3.5 20.6925 3.64045 20.9425 3.89046C21.1926 4.14047 21.333 4.47955 21.333 4.83312V8.83312Z" stroke="#4DB9F4" stroke-width="2" stroke-linecap="round" stroke-linejoin="round"/>
<path d="M28.333 27.1668V11.1668C28.333 10.8131 28.1926 10.474 27.9426 10.2239C27.6926 9.97377 27.3535 9.83318 26.9999 9.83301H5.66613C4.93013 9.83301 4.33301 10.4301 4.33301 11.1668V27.1668C4.33301 27.9028 4.93013 28.4999 5.66613 28.4999H26.9999C27.7359 28.4999 28.333 27.9028 28.333 27.1668Z" stroke="#4DB9F4" stroke-width="2" stroke-linecap="round" stroke-linejoin="round"/>
</svg>
