<svg width="25" height="25" viewBox="0 0 25 25" fill="none" xmlns="http://www.w3.org/2000/svg">
<path d="M9.82656 11.37C9.72656 11.36 9.60656 11.36 9.49656 11.37C7.11656 11.29 5.22656 9.34 5.22656 6.94C5.22656 4.49 7.20656 2.5 9.66656 2.5C12.1166 2.5 14.1066 4.49 14.1066 6.94C14.0966 9.34 12.2066 11.29 9.82656 11.37Z" stroke="#3B82F6" stroke-width="1.5" stroke-linecap="round" stroke-linejoin="round"/>
<path d="M17.0792 4.5C19.0192 4.5 20.5792 6.07 20.5792 8C20.5792 9.89 19.0792 11.43 17.2092 11.5C17.1292 11.49 17.0392 11.49 16.9492 11.5" stroke="#3B82F6" stroke-width="1.5" stroke-linecap="round" stroke-linejoin="round"/>
<path d="M4.82672 15.06C2.40672 16.68 2.40672 19.32 4.82672 20.93C7.57672 22.77 12.0867 22.77 14.8367 20.93C17.2567 19.31 17.2567 16.67 14.8367 15.06C12.0967 13.23 7.58672 13.23 4.82672 15.06Z" stroke="#3B82F6" stroke-width="1.5" stroke-linecap="round" stroke-linejoin="round"/>
<path d="M19.0078 20.5C19.7278 20.35 20.4078 20.06 20.9678 19.63C22.5278 18.46 22.5278 16.53 20.9678 15.36C20.4178 14.94 19.7478 14.66 19.0378 14.5" stroke="#3B82F6" stroke-width="1.5" stroke-linecap="round" stroke-linejoin="round"/>
</svg>
